<?xml version="1.0" encoding="UTF-8"?>
<svg id="Layer_2" data-name="Layer 2" xmlns="http://www.w3.org/2000/svg" viewBox="0 0 645.53 95.2">
  <g id="Layer_1-2" data-name="Layer 1">
    <g>
      <path className="cls-1" d="M44.4,95.11c-.6.03-1.07.07-1.53.07-4.55,0-9.1,0-13.59,0-.57-1.17-.81-91.86-.26-95.16,5.03,0,10.1-.01,15.14.01.54,1.13.78,92.01.25,95.08Z"/>
      <path className="cls-1" d="M571.03.05h13.63c.52,1.1.75,91.93.22,95.09-4.53.08-9.11.06-13.85,0V.05Z"/>
      <path className="cls-1" d="M418.58.06h13.6c.52,1.15.76,91.36.27,94.85-1.63.34-10.95.41-13.87.09V.06Z"/>
      <path className="cls-1" d="M414.18,95.1h-13.86V.1h13.66c.48,1.08.71,91.76.21,94.99Z"/>
      <path className="cls-1" d="M381.5.06h13.53c.11.06.17.09.22.13.05.04.14.08.14.12.05,31.07.09,62.15.13,93.22,0,.4-.05.81-.1,1.21-.01.09-.15.17-.31.35h-13.62V.06Z"/>
      <path className="cls-1" d="M345.06,95.1h-13.86V.01h13.61c.53,1.15.76,91.89.25,95.09Z"/>
      <path className="cls-1" d="M315.39,95.1h-13.84V.01h13.6c.52,1.19.74,91.82.25,95.08Z"/>
      <path className="cls-1" d="M238.61.05h13.63c.52,1.1.75,91.94.22,95.09-4.53.07-9.11.06-13.85,0V.05Z"/>
      <path className="cls-1" d="M211.67.06h13.62c.55,1.21.59,93.63.03,95.04h-13.65V.06Z"/>
      <path className="cls-1" d="M184.28,95.1h-13.68V.11h13.61c.49,1.06.59,93.3.07,94.98Z"/>
      <path className="cls-1" d="M631.83.08h13.71v94.99h-13.71V.08Z"/>
      <path className="cls-1" d="M98.87.02c4.32,0,8.39,0,12.46,0,.38,0,.77.03,1.29.06v95h-13.75V.02Z"/>
      <path className="cls-1" d="M94.45,95.1h-13.49c-.58-1.14-.87-90.53-.31-94.83,1.69-.31,11.29-.36,13.8-.06v94.89Z"/>
      <path className="cls-1" d="M62.69.11v94.97h-13.6c-.5-1.14-.65-93.06-.14-94.97h13.75Z"/>
      <path className="cls-1" d="M510.4.08h13.72v94.99h-13.72V.08Z"/>
      <path className="cls-1" d="M540.71.09h13.78v94.99h-13.78V.09Z"/>
      <path className="cls-1" d="M601.56.1h13.67v94.98h-13.57c-.49-1.2-.58-93.28-.1-94.98Z"/>
      <path className="cls-1" d="M69.74.1h3.88v94.95h-3.88V.1Z"/>
      <path className="cls-1" d="M152.3,95.1c-.75.03-1.38.08-2,.08-.54,0-1.08-.06-1.79-.1V.1h3.59c.47,1.08.69,91.74.2,95Z"/>
      <path className="cls-1" d="M200.15.06h3.45c.14.07.2.09.25.13.05.04.12.08.12.13.05,31.08.1,62.15.14,93.23,0,.4-.05.81-.1,1.21-.01.09-.14.17-.3.34h-3.56V.06Z"/>
      <path className="cls-1" d="M134.43,95.09c-.67.03-1.21.09-1.76.09-.62,0-1.25-.04-2.02-.08V.1h3.58c.51,1.03.74,92.06.2,94.99Z"/>
      <path className="cls-1" d="M260.59.06h3.43c.13.06.2.08.25.11.05.04.11.08.12.13.05.5.14,1.01.14,1.51-.02,30.97-.05,61.95-.09,92.92,0,.09-.14.18-.28.35h-3.56V.06Z"/>
      <path className="cls-1" d="M157.46.06h3.57c.5,1.1.67,92.71.17,94.99h-3.74V.06Z"/>
      <path className="cls-1" d="M319.69.1h3.86v94.95h-3.86V.1Z"/>
      <path className="cls-1" d="M358.48.06h3.55c.53,1.08.74,92.32.21,94.99h-3.77V.06Z"/>
      <path className="cls-1" d="M374.25,95.11h-3.77V.09c.69-.03,1.3-.06,1.92-.07.55-.01,1.11,0,1.63,0,.54,1.12.76,92.32.23,95.09Z"/>
      <path className="cls-1" d="M20.91.08h3.78v94.95h-3.64c-.46-1.04-.64-92.51-.14-94.95Z"/>
      <path className="cls-1" d="M470.71.05h3.45c.14.07.2.09.25.13.05.04.13.08.13.13.05,31.13.09,62.26.13,93.39,0,.35-.04.71-.1,1.06-.01.09-.15.17-.3.34h-3.56V.05Z"/>
      <path className="cls-1" d="M484.13,95.11h-3.78V.1h3.59c.51,1.04.73,92.09.19,95.01Z"/>
      <path className="cls-1" d="M493.78,95.1h-3.79V.1h3.6c.49,1.05.71,91.9.2,95Z"/>
      <path className="cls-1" d="M562.36.1h3.87v94.95h-3.87V.1Z"/>
      <path className="cls-1" d="M143.12,95.1h-3.22c-.54-1.13-.79-91.37-.26-94.97h3.45c.5,1.08.58,93.41.03,94.97Z"/>
      <path className="cls-1" d="M234.36,95.11h-3.39c-.55-1.11-.8-92.01-.26-94.98h3.46c.47,1.05.68,92,.18,94.98Z"/>
      <path className="cls-1" d="M285.07,95.11c-.34.02-.72.06-1.1.07-.71.01-1.42,0-1.96,0-.23-.13-.3-.16-.35-.19-.05-.04-.11-.08-.12-.13-.06-.4-.15-.8-.15-1.21,0-31.13,0-62.26,0-93.52h3.63c.49,1.02.6,93.29.05,94.97Z"/>
      <path className="cls-1" d="M451.44.02c.93,0,1.64,0,2.35,0,.39,0,.77.03,1.31.06v95h-3.67V.02Z"/>
      <path className="cls-1" d="M461.07.08h3.51c.5,1.24.58,93.39.08,95h-3.59V.08Z"/>
      <path className="cls-1" d="M530.59.08h3.66v95h-3.66V.08Z"/>
      <path className="cls-1" d="M0,.07h3.67v95H0V.07Z"/>
      <path className="cls-1" d="M295.33,95.1h-3.39c-.54-1.13-.79-91.43-.26-94.97h3.46c.48,1.04.71,91.82.19,94.97Z"/>
    </g>
  </g>
</svg>