<?xml version="1.0" encoding="UTF-8"?>
<svg id="Layer_2" data-name="Layer 2" xmlns="http://www.w3.org/2000/svg" viewBox="0 0 22 22">
  <defs>
    <style>
      .cls-1 {
        stroke-width: 0px;
      }
    </style>
  </defs>
  <g id="Layer_1-2" data-name="Layer 1">
    <path className="cls-1" d="M10,3V0h2v3h-2ZM10,22v-3h2v3h-2ZM19,12v-2h3v2h-3ZM0,12v-2h3v2H0ZM17.7,5.7l-1.4-1.4,1.75-1.8,1.45,1.45-1.8,1.75ZM3.95,19.5l-1.45-1.45,1.8-1.75,1.4,1.4-1.75,1.8ZM18.05,19.5l-1.75-1.8,1.4-1.4,1.8,1.75-1.45,1.45ZM4.3,5.7l-1.8-1.75,1.45-1.45,1.75,1.8-1.4,1.4ZM11,17c-1.67,0-3.08-.58-4.25-1.75s-1.75-2.58-1.75-4.25.58-3.08,1.75-4.25,2.58-1.75,4.25-1.75,3.08.58,4.25,1.75,1.75,2.58,1.75,4.25-.58,3.08-1.75,4.25-2.58,1.75-4.25,1.75ZM11,15c1.12,0,2.06-.39,2.84-1.16s1.16-1.72,1.16-2.84-.39-2.06-1.16-2.84-1.72-1.16-2.84-1.16-2.06.39-2.84,1.16-1.16,1.72-1.16,2.84.39,2.06,1.16,2.84,1.72,1.16,2.84,1.16Z"/>
  </g>
</svg>